<svg width="462" height="152" viewBox="0 0 462 152" fill="none" xmlns="http://www.w3.org/2000/svg">
<path d="M117.18 92.7397C112.438 88.9346 108.147 85.4934 104.262 82.3761L94.2641 74.3554C88.3314 69.5969 85 63.1416 85 56.4119V17H93.6529C112.958 17 128.609 29.5555 128.609 45.0433V105.055C126.095 101.04 122.374 96.9067 117.18 92.7397Z" fill="url(#paint0_linear_27_61)"/>
<path d="M11.4288 57.3152C16.1706 61.1193 20.4612 64.5615 24.3468 67.6787L34.3446 75.6994C40.276 80.4589 43.6086 86.9133 43.6086 93.6429V133.055H34.9558C15.6503 133.055 0 120.499 0 105.012V45C2.51399 49.0152 6.23344 53.1472 11.4288 57.3152Z" fill="url(#paint1_linear_27_61)"/>
<path d="M40.6417 36.8195C44.6012 39.996 49.0253 43.5452 53.5597 47.183C53.5597 47.183 63.783 55.3847 100.881 85.1462C104.766 88.2634 109.057 91.7056 113.799 95.5097C136.974 114.102 131.001 132.018 117.905 141.784C107.346 149.657 90.9215 151.243 90.9215 151.243C99.3803 147.285 111.013 132.863 89.1255 115.304C85.1659 112.127 80.7419 108.578 76.2075 104.94C58.5004 90.7347 28.8867 66.977 28.8867 66.977C25.0011 63.8598 20.7104 60.4176 15.9687 56.6135C-7.20666 38.021 -1.23395 20.1048 11.8623 10.3396C22.4216 2.46576 38.8456 0.879883 38.8456 0.879883C30.3868 4.83868 18.7543 19.2602 40.6417 36.8195Z" fill="url(#paint2_linear_27_61)"/>
<path d="M29.2735 5.47397C16.1772 15.2391 10.2045 33.1554 33.3798 51.7479C38.1216 55.552 42.4123 58.9942 46.2979 62.1114C46.2979 62.1114 75.9128 85.87 93.6186 100.075C98.153 103.712 102.577 107.262 106.537 110.438C118.506 120.041 117.514 131.408 110.717 139.255C105.085 145.756 94.755 149.448 90.9215 151.242C99.3803 147.284 111.013 132.862 89.1255 115.303C85.1659 112.126 80.7419 108.577 76.2075 104.939C58.5004 90.7336 28.8867 66.976 28.8867 66.976C25.0011 63.8587 20.7104 60.4166 15.9686 56.6124C-7.20666 38.02 -1.23395 20.1037 11.8623 10.3386C20.2059 4.11773 32.2023 1.82359 36.8737 1.13379C34.2154 2.3081 31.602 3.73732 29.2735 5.47397Z" fill="url(#paint3_linear_27_61)"/>
<path d="M155.922 110.784V57.2531C155.922 46.8443 161.126 41.6398 171.535 41.6398H185.364C195.773 41.6398 200.977 46.8443 200.977 57.2531V106.77L192.502 110.784H192.055V57.2531C192.055 52.1974 189.825 49.6695 185.364 49.6695H171.535C167.074 49.6695 164.844 52.1974 164.844 57.2531V106.77L156.368 110.784H155.922ZM217.663 50.071C216.622 49.0004 216.102 47.7216 216.102 46.2346C216.102 44.7179 216.622 43.4242 217.663 42.3536C218.704 41.283 219.968 40.7477 221.455 40.7477C222.942 40.7477 224.206 41.283 225.247 42.3536C226.288 43.4242 226.808 44.7179 226.808 46.2346C226.808 47.7216 226.288 49.0004 225.247 50.071C224.206 51.1416 222.942 51.677 221.455 51.677C219.968 51.677 218.704 51.1416 217.663 50.071ZM216.994 110.784V62.1602L225.47 58.1453H225.916V106.77L217.44 110.784H216.994ZM239.702 110.784V73.3125C239.702 64.3906 244.163 59.9297 253.085 59.9297H263.345C267.449 59.9297 270.423 61.0301 272.267 63.2308C274.23 61.0301 277.203 59.9297 281.189 59.9297H291.449C300.371 59.9297 304.832 64.3906 304.832 73.3125V106.77L296.356 110.784H295.91V73.3125C295.91 69.7437 294.423 67.9594 291.449 67.9594H281.189C278.215 67.9594 276.728 69.7437 276.728 73.3125V106.77L268.252 110.784H267.806V73.3125C267.806 69.7437 266.319 67.9594 263.345 67.9594H253.085C250.111 67.9594 248.624 69.7437 248.624 73.3125V106.77L240.148 110.784H239.702ZM332 100.97H342.261C345.235 100.97 346.722 99.1859 346.722 95.6172V73.3125C346.722 69.7437 345.235 67.9594 342.261 67.9594H332C329.026 67.9594 327.539 69.7437 327.539 73.3125V95.6172C327.539 99.1859 329.026 100.97 332 100.97ZM332 109C323.079 109 318.618 104.539 318.618 95.6172V43.8703L327.093 39.8555H327.539V61.3126C328.729 60.3907 330.216 59.9297 332 59.9297H342.261C351.182 59.9297 355.643 64.3906 355.643 73.3125V95.6172C355.643 104.539 351.182 109 342.261 109H332ZM380.582 109C371.66 109 367.199 104.539 367.199 95.6172V62.1602L375.675 58.1453H376.121V95.6172C376.121 99.1859 377.608 100.97 380.582 100.97H390.842C393.816 100.97 395.303 99.1859 395.303 95.6172V62.1602L403.779 58.1453H404.225V95.6172C404.225 104.539 399.764 109 390.842 109H380.582ZM427.825 109C418.903 109 414.442 104.539 414.442 95.6172V94.0112L422.918 89.9964H423.364V95.6172C423.364 99.1859 424.851 100.97 427.825 100.97H438.085C441.059 100.97 442.546 99.1859 442.546 95.6172V92.093C442.546 88.5243 441.059 86.7399 438.085 86.7399H429.699C420.777 86.7399 416.316 82.2641 416.316 73.3125C416.316 64.3906 420.777 59.9297 429.699 59.9297H434.918C443.84 59.9297 448.301 63.5282 448.301 70.7252L439.825 74.74H439.379V73.3125C439.379 69.7437 437.892 67.9594 434.918 67.9594H429.699C426.725 67.9594 425.238 69.7437 425.238 73.3125C425.238 76.911 426.725 78.7102 429.699 78.7102H438.085C447.007 78.7102 451.468 83.1712 451.468 92.093V95.6172C451.468 104.539 447.007 109 438.085 109H427.825Z" fill="#03B9C1"/>
<defs>
<linearGradient id="paint0_linear_27_61" x1="74.2444" y1="25.6274" x2="134.301" y2="100.487" gradientUnits="userSpaceOnUse">
<stop stop-color="#00F4FF"/>
<stop offset="1" stop-color="#000707" stop-opacity="0.733333"/>
</linearGradient>
<linearGradient id="paint1_linear_27_61" x1="-22.3207" y1="62.9065" x2="37.7358" y2="137.767" gradientUnits="userSpaceOnUse">
<stop stop-color="#00F4FF" stop-opacity="0.98"/>
<stop offset="1" stop-color="#000707"/>
</linearGradient>
<linearGradient id="paint2_linear_27_61" x1="0.305004" y1="76.0618" x2="129.464" y2="76.0618" gradientUnits="userSpaceOnUse">
<stop stop-color="#00F4FF"/>
<stop offset="1" stop-color="#000707"/>
</linearGradient>
<linearGradient id="paint3_linear_27_61" x1="0.304883" y1="76.188" x2="115.717" y2="76.188" gradientUnits="userSpaceOnUse">
<stop stop-color="#000707"/>
<stop offset="1" stop-color="#00F4FF"/>
</linearGradient>
</defs>
</svg>
