<svg width="590" height="241" viewBox="0 0 590 241" fill="none" xmlns="http://www.w3.org/2000/svg">
<rect width="590" height="241" rx="34" fill="#373B3B"/>
<path d="M189.18 135.74C184.438 131.935 180.147 128.493 176.262 125.376L166.264 117.355C160.331 112.597 157 106.142 157 99.4119V60H165.653C184.958 60 200.609 72.5555 200.609 88.0433V148.055C198.095 144.04 194.374 139.907 189.18 135.74Z" fill="url(#paint0_linear_28_63)"/>
<path d="M83.4288 100.315C88.1706 104.119 92.4612 107.561 96.3468 110.679L106.345 118.699C112.276 123.459 115.609 129.913 115.609 136.643V176.055H106.956C87.6503 176.055 72 163.499 72 148.012V88C74.514 92.0152 78.2334 96.1472 83.4288 100.315Z" fill="url(#paint1_linear_28_63)"/>
<path d="M112.642 79.8195C116.601 82.996 121.025 86.5452 125.56 90.183C125.56 90.183 135.783 98.3847 172.881 128.146C176.766 131.263 181.057 134.706 185.799 138.51C208.974 157.102 203.001 175.018 189.905 184.784C179.346 192.657 162.922 194.243 162.922 194.243C171.38 190.285 183.013 175.863 161.125 158.304C157.166 155.127 152.742 151.578 148.207 147.94C130.5 133.735 100.887 109.977 100.887 109.977C97.0011 106.86 92.7104 103.418 87.9687 99.6135C64.7933 81.021 70.766 63.1048 83.8623 53.3396C94.4216 45.4658 110.846 43.8799 110.846 43.8799C102.387 47.8387 90.7543 62.2602 112.642 79.8195Z" fill="url(#paint2_linear_28_63)"/>
<path d="M101.274 48.474C88.1772 58.2391 82.2045 76.1554 105.38 94.7479C110.122 98.552 114.412 101.994 118.298 105.111C118.298 105.111 147.913 128.87 165.619 143.075C170.153 146.712 174.577 150.262 178.537 153.438C190.506 163.041 189.514 174.408 182.717 182.255C177.085 188.756 166.755 192.448 162.922 194.242C171.38 190.284 183.013 175.862 161.125 158.303C157.166 155.126 152.742 151.577 148.207 147.939C130.5 133.734 100.887 109.976 100.887 109.976C97.0011 106.859 92.7104 103.417 87.9686 99.6124C64.7933 81.02 70.766 63.1037 83.8623 53.3386C92.2059 47.1177 104.202 44.8236 108.874 44.1338C106.215 45.3081 103.602 46.7373 101.274 48.474Z" fill="url(#paint3_linear_28_63)"/>
<path d="M227.922 153.784V100.253C227.922 89.8443 233.126 84.6398 243.535 84.6398H257.364C267.773 84.6398 272.977 89.8443 272.977 100.253V149.77L264.502 153.784H264.055V100.253C264.055 95.1974 261.825 92.6695 257.364 92.6695H243.535C239.074 92.6695 236.844 95.1974 236.844 100.253V149.77L228.368 153.784H227.922ZM289.663 93.071C288.622 92.0004 288.102 90.7216 288.102 89.2346C288.102 87.7179 288.622 86.4242 289.663 85.3536C290.704 84.283 291.968 83.7477 293.455 83.7477C294.942 83.7477 296.206 84.283 297.247 85.3536C298.288 86.4242 298.808 87.7179 298.808 89.2346C298.808 90.7216 298.288 92.0004 297.247 93.071C296.206 94.1416 294.942 94.677 293.455 94.677C291.968 94.677 290.704 94.1416 289.663 93.071ZM288.994 153.784V105.16L297.47 101.145H297.916V149.77L289.44 153.784H288.994ZM311.702 153.784V116.312C311.702 107.391 316.163 102.93 325.085 102.93H335.345C339.449 102.93 342.423 104.03 344.267 106.231C346.23 104.03 349.203 102.93 353.189 102.93H363.449C372.371 102.93 376.832 107.391 376.832 116.312V149.77L368.356 153.784H367.91V116.312C367.91 112.744 366.423 110.959 363.449 110.959H353.189C350.215 110.959 348.728 112.744 348.728 116.312V149.77L340.252 153.784H339.806V116.312C339.806 112.744 338.319 110.959 335.345 110.959H325.085C322.111 110.959 320.624 112.744 320.624 116.312V149.77L312.148 153.784H311.702ZM404 143.97H414.261C417.235 143.97 418.722 142.186 418.722 138.617V116.312C418.722 112.744 417.235 110.959 414.261 110.959H404C401.026 110.959 399.539 112.744 399.539 116.312V138.617C399.539 142.186 401.026 143.97 404 143.97ZM404 152C395.079 152 390.618 147.539 390.618 138.617V86.8703L399.093 82.8555H399.539V104.313C400.729 103.391 402.216 102.93 404 102.93H414.261C423.182 102.93 427.643 107.391 427.643 116.312V138.617C427.643 147.539 423.182 152 414.261 152H404ZM452.582 152C443.66 152 439.199 147.539 439.199 138.617V105.16L447.675 101.145H448.121V138.617C448.121 142.186 449.608 143.97 452.582 143.97H462.842C465.816 143.97 467.303 142.186 467.303 138.617V105.16L475.779 101.145H476.225V138.617C476.225 147.539 471.764 152 462.842 152H452.582ZM499.825 152C490.903 152 486.442 147.539 486.442 138.617V137.011L494.918 132.996H495.364V138.617C495.364 142.186 496.851 143.97 499.825 143.97H510.085C513.059 143.97 514.546 142.186 514.546 138.617V135.093C514.546 131.524 513.059 129.74 510.085 129.74H501.699C492.777 129.74 488.316 125.264 488.316 116.312C488.316 107.391 492.777 102.93 501.699 102.93H506.918C515.84 102.93 520.301 106.528 520.301 113.725L511.825 117.74H511.379V116.312C511.379 112.744 509.892 110.959 506.918 110.959H501.699C498.725 110.959 497.238 112.744 497.238 116.312C497.238 119.911 498.725 121.71 501.699 121.71H510.085C519.007 121.71 523.468 126.171 523.468 135.093V138.617C523.468 147.539 519.007 152 510.085 152H499.825Z" fill="#03B9C1"/>
<defs>
<linearGradient id="paint0_linear_28_63" x1="146.244" y1="68.6274" x2="206.301" y2="143.487" gradientUnits="userSpaceOnUse">
<stop stop-color="#00F4FF"/>
<stop offset="1" stop-color="#000707" stop-opacity="0.733333"/>
</linearGradient>
<linearGradient id="paint1_linear_28_63" x1="49.6793" y1="105.907" x2="109.736" y2="180.767" gradientUnits="userSpaceOnUse">
<stop stop-color="#00F4FF" stop-opacity="0.98"/>
<stop offset="1" stop-color="#000707"/>
</linearGradient>
<linearGradient id="paint2_linear_28_63" x1="72.305" y1="119.062" x2="201.464" y2="119.062" gradientUnits="userSpaceOnUse">
<stop stop-color="#00F4FF"/>
<stop offset="1" stop-color="#000707"/>
</linearGradient>
<linearGradient id="paint3_linear_28_63" x1="72.3049" y1="119.188" x2="187.717" y2="119.188" gradientUnits="userSpaceOnUse">
<stop stop-color="#000707"/>
<stop offset="1" stop-color="#00F4FF"/>
</linearGradient>
</defs>
</svg>
