<svg width="442" height="164" viewBox="0 0 442 164" fill="none" xmlns="http://www.w3.org/2000/svg">
<rect width="442" height="164" rx="34" fill="#373B3B"/>
<path d="M72.9219 110.784V57.2531C72.9219 46.8443 78.1263 41.6398 88.5352 41.6398H102.364C112.773 41.6398 117.977 46.8443 117.977 57.2531V106.77L109.502 110.784H109.055V57.2531C109.055 52.1974 106.825 49.6695 102.364 49.6695H88.5352C84.0742 49.6695 81.8438 52.1974 81.8438 57.2531V106.77L73.368 110.784H72.9219ZM134.663 50.071C133.622 49.0004 133.102 47.7216 133.102 46.2346C133.102 44.7179 133.622 43.4242 134.663 42.3536C135.704 41.283 136.968 40.7477 138.455 40.7477C139.942 40.7477 141.206 41.283 142.247 42.3536C143.288 43.4242 143.808 44.7179 143.808 46.2346C143.808 47.7216 143.288 49.0004 142.247 50.071C141.206 51.1416 139.942 51.677 138.455 51.677C136.968 51.677 135.704 51.1416 134.663 50.071ZM133.994 110.784V62.1602L142.47 58.1453H142.916V106.77L134.44 110.784H133.994ZM156.702 110.784V73.3125C156.702 64.3906 161.163 59.9297 170.085 59.9297H180.345C184.449 59.9297 187.423 61.0301 189.267 63.2308C191.23 61.0301 194.203 59.9297 198.189 59.9297H208.449C217.371 59.9297 221.832 64.3906 221.832 73.3125V106.77L213.356 110.784H212.91V73.3125C212.91 69.7437 211.423 67.9594 208.449 67.9594H198.189C195.215 67.9594 193.728 69.7437 193.728 73.3125V106.77L185.252 110.784H184.806V73.3125C184.806 69.7437 183.319 67.9594 180.345 67.9594H170.085C167.111 67.9594 165.624 69.7437 165.624 73.3125V106.77L157.148 110.784H156.702ZM249 100.97H259.261C262.235 100.97 263.722 99.1859 263.722 95.6172V73.3125C263.722 69.7437 262.235 67.9594 259.261 67.9594H249C246.026 67.9594 244.539 69.7437 244.539 73.3125V95.6172C244.539 99.1859 246.026 100.97 249 100.97ZM249 109C240.079 109 235.618 104.539 235.618 95.6172V43.8703L244.093 39.8555H244.539V61.3126C245.729 60.3907 247.216 59.9297 249 59.9297H259.261C268.182 59.9297 272.643 64.3906 272.643 73.3125V95.6172C272.643 104.539 268.182 109 259.261 109H249ZM297.582 109C288.66 109 284.199 104.539 284.199 95.6172V62.1602L292.675 58.1453H293.121V95.6172C293.121 99.1859 294.608 100.97 297.582 100.97H307.842C310.816 100.97 312.303 99.1859 312.303 95.6172V62.1602L320.779 58.1453H321.225V95.6172C321.225 104.539 316.764 109 307.842 109H297.582ZM344.825 109C335.903 109 331.442 104.539 331.442 95.6172V94.0112L339.918 89.9964H340.364V95.6172C340.364 99.1859 341.851 100.97 344.825 100.97H355.085C358.059 100.97 359.546 99.1859 359.546 95.6172V92.093C359.546 88.5243 358.059 86.7399 355.085 86.7399H346.699C337.777 86.7399 333.316 82.2641 333.316 73.3125C333.316 64.3906 337.777 59.9297 346.699 59.9297H351.918C360.84 59.9297 365.301 63.5282 365.301 70.7252L356.825 74.74H356.379V73.3125C356.379 69.7437 354.892 67.9594 351.918 67.9594H346.699C343.725 67.9594 342.238 69.7437 342.238 73.3125C342.238 76.911 343.725 78.7102 346.699 78.7102H355.085C364.007 78.7102 368.468 83.1712 368.468 92.093V95.6172C368.468 104.539 364.007 109 355.085 109H344.825Z" fill="#03B9C1"/>
</svg>
