<svg width="130" height="151" viewBox="0 0 130 151" fill="none" xmlns="http://www.w3.org/2000/svg">
<path d="M117.18 91.8598C112.438 88.0547 108.147 84.6135 104.262 81.4963L94.2641 73.4755C88.3314 68.717 85 62.2617 85 55.532V16.1201H93.6529C112.958 16.1201 128.609 28.6756 128.609 44.1635V104.175C126.095 100.16 122.374 96.0268 117.18 91.8598Z" fill="url(#paint0_linear_27_5)"/>
<path d="M11.4288 56.4353C16.1706 60.2394 20.4612 63.6816 24.3468 66.7988L34.3446 74.8195C40.276 79.5791 43.6086 86.0334 43.6086 92.7631V132.175H34.9558C15.6503 132.175 0 119.619 0 104.132V44.1201C2.51399 48.1353 6.23344 52.2673 11.4288 56.4353Z" fill="url(#paint1_linear_27_5)"/>
<path d="M40.6417 35.9396C44.6012 39.1161 49.0253 42.6654 53.5597 46.3031C53.5597 46.3031 63.783 54.5048 100.881 84.2663C104.766 87.3836 109.057 90.8258 113.799 94.6299C136.974 113.222 131.001 131.139 117.905 140.904C107.346 148.778 90.9215 150.363 90.9215 150.363C99.3803 146.405 111.013 131.983 89.1255 114.424C85.1659 111.247 80.7419 107.698 76.2075 104.06C58.5004 89.8548 28.8867 66.0971 28.8867 66.0971C25.0011 62.9799 20.7104 59.5377 15.9687 55.7336C-7.20666 37.1411 -1.23395 19.2249 11.8623 9.4597C22.4216 1.58588 38.8456 0 38.8456 0C30.3868 3.9588 18.7543 18.3804 40.6417 35.9396Z" fill="url(#paint2_linear_27_5)"/>
<path d="M29.2735 4.59409C16.1772 14.3593 10.2045 32.2755 33.3798 50.868C38.1216 54.6721 42.4123 58.1143 46.2979 61.2315C46.2979 61.2315 75.9128 84.9901 93.6186 99.1947C98.153 102.832 102.577 106.382 106.537 109.558C118.506 119.161 117.514 130.529 110.717 138.375C105.085 144.876 94.755 148.568 90.9215 150.362C99.3803 146.404 111.013 131.982 89.1255 114.423C85.1659 111.246 80.7419 107.697 76.2075 104.059C58.5004 89.8538 28.8867 66.0961 28.8867 66.0961C25.0011 62.9789 20.7104 59.5367 15.9686 55.7326C-7.20666 37.1401 -1.23395 19.2239 11.8623 9.45868C20.2059 3.23784 32.2023 0.943705 36.8737 0.253906C34.2154 1.42822 31.602 2.85743 29.2735 4.59409Z" fill="url(#paint3_linear_27_5)"/>
<defs>
<linearGradient id="paint0_linear_27_5" x1="74.2444" y1="24.7476" x2="134.301" y2="99.6075" gradientUnits="userSpaceOnUse">
<stop stop-color="#00F4FF"/>
<stop offset="1" stop-color="#000707" stop-opacity="0.733333"/>
</linearGradient>
<linearGradient id="paint1_linear_27_5" x1="-22.3207" y1="62.0267" x2="37.7358" y2="136.887" gradientUnits="userSpaceOnUse">
<stop stop-color="#00F4FF" stop-opacity="0.98"/>
<stop offset="1" stop-color="#000707"/>
</linearGradient>
<linearGradient id="paint2_linear_27_5" x1="0.305004" y1="75.1819" x2="129.464" y2="75.1819" gradientUnits="userSpaceOnUse">
<stop stop-color="#00F4FF"/>
<stop offset="1" stop-color="#000707"/>
</linearGradient>
<linearGradient id="paint3_linear_27_5" x1="0.304883" y1="75.3082" x2="115.717" y2="75.3082" gradientUnits="userSpaceOnUse">
<stop stop-color="#000707"/>
<stop offset="1" stop-color="#00F4FF"/>
</linearGradient>
</defs>
</svg>
