<svg xmlns="http://www.w3.org/2000/svg" version="1.1" xmlns:xlink="http://www.w3.org/1999/xlink" xmlns:svgjs="http://svgjs.dev/svgjs" width="132" height="152"><svg width="132" height="152" viewBox="0 0 132 152" fill="none" xmlns="http://www.w3.org/2000/svg">
<path d="M120.25 94.3783C115.508 90.5733 111.218 87.132 107.332 84.0148L97.3344 75.9941C91.4017 71.2356 88.0703 64.7803 88.0703 58.0506V18.6387H96.7232C116.029 18.6387 131.679 31.1941 131.679 46.682V106.694C129.165 102.678 125.444 98.5454 120.25 94.3783Z" fill="url(#paint0_linear_27_5)"></path>
<path d="M11.5225 57.7458C16.2643 61.55 20.555 64.9921 24.4406 68.1094L34.4383 76.1301C40.3698 80.8896 43.7024 87.3439 43.7024 94.0736V133.486H35.0495C15.7441 133.486 0.09375 120.93 0.09375 105.442V45.4307C2.60774 49.4459 6.32719 53.5779 11.5225 57.7458Z" fill="url(#paint1_linear_27_5)"></path>
<path d="M41.6417 36.8195C45.6012 39.996 50.0253 43.5452 54.5597 47.183C54.5597 47.183 64.783 55.3847 101.881 85.1462C105.766 88.2634 110.057 91.7056 114.799 95.5097C137.974 114.102 132.001 132.018 118.905 141.784C108.346 149.657 91.9215 151.243 91.9215 151.243C100.38 147.285 112.013 132.863 90.1255 115.304C86.1659 112.127 81.7419 108.578 77.2075 104.94C59.5004 90.7347 29.8867 66.977 29.8867 66.977C26.0011 63.8598 21.7104 60.4176 16.9687 56.6135C-6.20666 38.021 -0.233953 20.1048 12.8623 10.3396C23.4216 2.46576 39.8456 0.879883 39.8456 0.879883C31.3868 4.83868 19.7543 19.2602 41.6417 36.8195Z" fill="url(#paint2_linear_27_5)"></path>
<path d="M30.2735 5.47397C17.1772 15.2391 11.2045 33.1554 34.3798 51.7479C39.1216 55.552 43.4123 58.9942 47.2979 62.1114C47.2979 62.1114 76.9128 85.87 94.6186 100.075C99.153 103.712 103.577 107.262 107.537 110.438C119.506 120.041 118.514 131.408 111.717 139.255C106.085 145.756 95.755 149.448 91.9215 151.242C100.38 147.284 112.013 132.862 90.1255 115.303C86.1659 112.126 81.7419 108.577 77.2075 104.939C59.5004 90.7336 29.8867 66.976 29.8867 66.976C26.0011 63.8587 21.7104 60.4166 16.9686 56.6124C-6.20666 38.02 -0.233954 20.1037 12.8623 10.3386C21.2059 4.11773 33.2023 1.82359 37.8737 1.13379C35.2154 2.3081 32.602 3.73732 30.2735 5.47397Z" fill="url(#paint3_linear_27_5)"></path>
<defs>
<linearGradient id="SvgjsLinearGradient1035" x1="77.3147" y1="27.2661" x2="137.371" y2="102.126" gradientUnits="userSpaceOnUse">
<stop stop-color="#00F4FF"></stop>
<stop offset="1" stop-color="#000707" stop-opacity="0.733333"></stop>
</linearGradient>
<linearGradient id="SvgjsLinearGradient1034" x1="-22.2269" y1="63.3372" x2="37.8296" y2="138.197" gradientUnits="userSpaceOnUse">
<stop stop-color="#00F4FF" stop-opacity="0.98"></stop>
<stop offset="1" stop-color="#000707"></stop>
</linearGradient>
<linearGradient id="SvgjsLinearGradient1033" x1="1.305" y1="76.0618" x2="130.464" y2="76.0618" gradientUnits="userSpaceOnUse">
<stop stop-color="#00F4FF"></stop>
<stop offset="1" stop-color="#000707"></stop>
</linearGradient>
<linearGradient id="SvgjsLinearGradient1032" x1="1.30488" y1="76.188" x2="116.717" y2="76.188" gradientUnits="userSpaceOnUse">
<stop stop-color="#000707"></stop>
<stop offset="1" stop-color="#00F4FF"></stop>
</linearGradient>
</defs>
</svg><style>@media (prefers-color-scheme: light) { :root { filter: none; } }
@media (prefers-color-scheme: dark) { :root { filter: none; } }
</style></svg>